# xmcd
#
# Track frame offsets:
#	150
#	22523
#	42795
#
# Disc length: 871 seconds
#
# Revision: 1
# Processed by: cddbd v1.5.1PL0 Copyright (c) Steve Scherf et al.
# Submitted via: CDex 1.50Beta5
#
DISCID=11036503
DTITLE=GAO - 「月」に吠える朝
DYEAR=1900
DGENRE=Pop
TTITLE0=「月」に吠える朝
TTITLE1=壊れかけた時計
TTITLE2=「月」に吠える朝 (Karaoke)
EXTD=
EXTT0=
EXTT1=
EXTT2=
PLAYORDER=
